<svg width="45" height="40" viewBox="0 0 45 40" fill="none" xmlns="http://www.w3.org/2000/svg">
<path d="M22.5 8C24.6402 8 26.4369 9.34345 30.0303 12.0303L31.959 13.4727C33.947 14.9591 34.9414 15.7022 35.4707 16.7061C36 17.71 36 18.8525 36 21.1367V28.2705C36 31.4428 35.9998 33.0291 34.8701 34.0146C33.7404 35 31.9222 35 28.2861 35H16.7139C13.0778 35 11.2596 35 10.1299 34.0146C9.00015 33.0291 9 31.4428 9 28.2705V21.1367C9 18.8525 8.99998 17.71 9.5293 16.7061C10.0586 15.7022 11.053 14.9591 13.041 13.4727L14.9697 12.0303C18.5631 9.34345 20.3598 8 22.5 8Z" fill="#B85A9A"/>
<path d="M19 27C19 25.8954 19.8954 25 21 25H24C25.1046 25 26 25.8954 26 27V35H19V27Z" fill="white"/>
</svg>
