<svg width="371" height="60" viewBox="0 0 371 60" fill="none" xmlns="http://www.w3.org/2000/svg">
<rect width="371" height="60" rx="18" fill="#B85A9A"/>
<path d="M22.706 45.156C21.9433 45.156 21.263 44.9957 20.665 44.675C20.067 44.3543 19.5947 43.9167 19.248 43.362C18.91 42.7987 18.741 42.1617 18.741 41.451V35.315H20.756V41.321C20.756 41.7023 20.8383 42.049 21.003 42.361C21.1763 42.6643 21.4103 42.9027 21.705 43.076C21.9997 43.2493 22.3333 43.336 22.706 43.336C23.0873 43.336 23.421 43.2493 23.707 43.076C24.0017 42.9027 24.2313 42.6643 24.396 42.361C24.5693 42.049 24.656 41.7023 24.656 41.321V35.315H26.671V41.451C26.671 42.1617 26.4977 42.7987 26.151 43.362C25.813 43.9167 25.345 44.3543 24.747 44.675C24.149 44.9957 23.4687 45.156 22.706 45.156ZM30.9042 45.156C30.1242 45.156 29.4439 44.974 28.8632 44.61C28.2912 44.2373 27.9012 43.739 27.6932 43.115L29.1232 42.439C29.3052 42.8203 29.5522 43.1193 29.8642 43.336C30.1762 43.5527 30.5229 43.661 30.9042 43.661C31.1816 43.661 31.3939 43.6047 31.5412 43.492C31.6886 43.3793 31.7622 43.2233 31.7622 43.024C31.7622 42.92 31.7362 42.8333 31.6842 42.764C31.6322 42.686 31.5542 42.6167 31.4502 42.556C31.3462 42.4953 31.2162 42.4433 31.0602 42.4L29.8512 42.062C29.2706 41.8973 28.8242 41.633 28.5122 41.269C28.2002 40.8963 28.0442 40.4587 28.0442 39.956C28.0442 39.514 28.1569 39.1283 28.3822 38.799C28.6076 38.4697 28.9239 38.214 29.3312 38.032C29.7386 37.8413 30.2066 37.746 30.7352 37.746C31.4286 37.746 32.0352 37.9107 32.5552 38.24C33.0839 38.5607 33.4566 39.0157 33.6732 39.605L32.2302 40.281C32.1262 39.9863 31.9356 39.7523 31.6582 39.579C31.3896 39.397 31.0819 39.306 30.7352 39.306C30.4839 39.306 30.2846 39.358 30.1372 39.462C29.9986 39.566 29.9292 39.709 29.9292 39.891C29.9292 39.9863 29.9552 40.073 30.0072 40.151C30.0592 40.229 30.1416 40.2983 30.2542 40.359C30.3756 40.4197 30.5229 40.476 30.6962 40.528L31.8272 40.866C32.4166 41.0393 32.8672 41.3037 33.1792 41.659C33.4912 42.0057 33.6472 42.4347 33.6472 42.946C33.6472 43.388 33.5302 43.7737 33.2962 44.103C33.0709 44.4323 32.7546 44.6923 32.3472 44.883C31.9399 45.065 31.4589 45.156 30.9042 45.156ZM38.2317 45.156C37.4777 45.156 36.8233 44.9913 36.2687 44.662C35.714 44.324 35.285 43.8733 34.9817 43.31C34.6783 42.7467 34.5267 42.1227 34.5267 41.438C34.5267 40.7273 34.6827 40.0947 34.9947 39.54C35.3153 38.9853 35.7443 38.5477 36.2817 38.227C36.819 37.9063 37.4257 37.746 38.1017 37.746C38.665 37.746 39.1633 37.837 39.5967 38.019C40.03 38.1923 40.394 38.4393 40.6887 38.76C40.992 39.0807 41.2217 39.4533 41.3777 39.878C41.5337 40.294 41.6117 40.749 41.6117 41.243C41.6117 41.3817 41.603 41.5203 41.5857 41.659C41.577 41.789 41.5553 41.9017 41.5207 41.997H36.2037V40.567H40.4157L39.4927 41.243C39.5793 40.8703 39.575 40.541 39.4797 40.255C39.3843 39.9603 39.2153 39.7307 38.9727 39.566C38.7387 39.3927 38.4483 39.306 38.1017 39.306C37.7637 39.306 37.4733 39.3883 37.2307 39.553C36.988 39.7177 36.806 39.9603 36.6847 40.281C36.5633 40.6017 36.5157 40.9917 36.5417 41.451C36.507 41.8497 36.5547 42.2007 36.6847 42.504C36.8147 42.8073 37.014 43.0457 37.2827 43.219C37.5513 43.3837 37.8763 43.466 38.2577 43.466C38.6043 43.466 38.899 43.3967 39.1417 43.258C39.393 43.1193 39.588 42.9287 39.7267 42.686L41.2867 43.427C41.148 43.7737 40.927 44.077 40.6237 44.337C40.329 44.597 39.978 44.8007 39.5707 44.948C39.1633 45.0867 38.717 45.156 38.2317 45.156ZM49.8409 45.156C49.1475 45.156 48.5019 45.0303 47.9039 44.779C47.3145 44.5277 46.7989 44.1767 46.3569 43.726C45.9149 43.2753 45.5682 42.7467 45.3169 42.14C45.0742 41.5333 44.9529 40.8703 44.9529 40.151C44.9529 39.4317 45.0742 38.7687 45.3169 38.162C45.5595 37.5467 45.9019 37.018 46.3439 36.576C46.7859 36.1253 47.3015 35.7787 47.8909 35.536C48.4889 35.2847 49.1389 35.159 49.8409 35.159C50.5429 35.159 51.1712 35.276 51.7259 35.51C52.2892 35.744 52.7659 36.056 53.1559 36.446C53.5459 36.836 53.8232 37.2693 53.9879 37.746L52.2069 38.604C52.0422 38.136 51.7519 37.7503 51.3359 37.447C50.9285 37.135 50.4302 36.979 49.8409 36.979C49.2689 36.979 48.7662 37.1133 48.3329 37.382C47.8995 37.6507 47.5615 38.0233 47.3189 38.5C47.0849 38.968 46.9679 39.5183 46.9679 40.151C46.9679 40.7837 47.0849 41.3383 47.3189 41.815C47.5615 42.2917 47.8995 42.6643 48.3329 42.933C48.7662 43.2017 49.2689 43.336 49.8409 43.336C50.4302 43.336 50.9285 43.1843 51.3359 42.881C51.7519 42.569 52.0422 42.179 52.2069 41.711L53.9879 42.569C53.8232 43.0457 53.5459 43.479 53.1559 43.869C52.7659 44.259 52.2892 44.571 51.7259 44.805C51.1712 45.039 50.5429 45.156 49.8409 45.156ZM58.5339 45.156C57.8319 45.156 57.1906 44.9957 56.6099 44.675C56.0379 44.3543 55.5786 43.9167 55.2319 43.362C54.8939 42.7987 54.7249 42.1617 54.7249 41.451C54.7249 40.7317 54.8939 40.0947 55.2319 39.54C55.5786 38.9853 56.0379 38.5477 56.6099 38.227C57.1906 37.9063 57.8319 37.746 58.5339 37.746C59.2359 37.746 59.8729 37.9063 60.4449 38.227C61.0169 38.5477 61.4719 38.9853 61.8099 39.54C62.1566 40.0947 62.3299 40.7317 62.3299 41.451C62.3299 42.1617 62.1566 42.7987 61.8099 43.362C61.4719 43.9167 61.0169 44.3543 60.4449 44.675C59.8729 44.9957 59.2359 45.156 58.5339 45.156ZM58.5339 43.401C58.8892 43.401 59.1969 43.3187 59.4569 43.154C59.7256 42.9893 59.9336 42.7597 60.0809 42.465C60.2369 42.1703 60.3149 41.8323 60.3149 41.451C60.3149 41.0697 60.2369 40.736 60.0809 40.45C59.9336 40.1553 59.7256 39.9257 59.4569 39.761C59.1969 39.5877 58.8892 39.501 58.5339 39.501C58.1786 39.501 57.8666 39.5877 57.5979 39.761C57.3292 39.9257 57.1169 40.1553 56.9609 40.45C56.8136 40.736 56.7399 41.0697 56.7399 41.451C56.7399 41.8323 56.8136 42.1703 56.9609 42.465C57.1169 42.7597 57.3292 42.9893 57.5979 43.154C57.8666 43.3187 58.1786 43.401 58.5339 43.401ZM66.8197 45.156C66.1263 45.156 65.5067 44.9913 64.9607 44.662C64.4147 44.3327 63.9813 43.8863 63.6607 43.323C63.3487 42.7597 63.1927 42.1357 63.1927 41.451C63.1927 40.7577 63.353 40.1337 63.6737 39.579C63.9943 39.0157 64.4277 38.5693 64.9737 38.24C65.5197 37.9107 66.1307 37.746 66.8067 37.746C67.3267 37.746 67.786 37.8457 68.1847 38.045C68.592 38.2357 68.9127 38.5087 69.1467 38.864L68.8477 39.254V35.159H70.7977V45H68.9777V43.7L69.1597 44.103C68.917 44.4497 68.5877 44.714 68.1717 44.896C67.7557 45.0693 67.305 45.156 66.8197 45.156ZM67.0537 43.401C67.409 43.401 67.721 43.3187 67.9897 43.154C68.2583 42.9893 68.4663 42.7597 68.6137 42.465C68.7697 42.1703 68.8477 41.8323 68.8477 41.451C68.8477 41.0697 68.7697 40.7317 68.6137 40.437C68.4663 40.1423 68.2583 39.9127 67.9897 39.748C67.721 39.5833 67.409 39.501 67.0537 39.501C66.6983 39.501 66.3777 39.5877 66.0917 39.761C65.8143 39.9257 65.5977 40.1553 65.4417 40.45C65.2857 40.736 65.2077 41.0697 65.2077 41.451C65.2077 41.8323 65.2857 42.1703 65.4417 42.465C65.5977 42.7597 65.8143 42.9893 66.0917 43.154C66.3777 43.3187 66.6983 43.401 67.0537 43.401ZM75.6447 45.156C74.8907 45.156 74.2364 44.9913 73.6817 44.662C73.1271 44.324 72.6981 43.8733 72.3947 43.31C72.0914 42.7467 71.9397 42.1227 71.9397 41.438C71.9397 40.7273 72.0957 40.0947 72.4077 39.54C72.7284 38.9853 73.1574 38.5477 73.6947 38.227C74.2321 37.9063 74.8387 37.746 75.5147 37.746C76.0781 37.746 76.5764 37.837 77.0097 38.019C77.4431 38.1923 77.8071 38.4393 78.1017 38.76C78.4051 39.0807 78.6347 39.4533 78.7907 39.878C78.9467 40.294 79.0247 40.749 79.0247 41.243C79.0247 41.3817 79.0161 41.5203 78.9987 41.659C78.9901 41.789 78.9684 41.9017 78.9337 41.997H73.6167V40.567H77.8287L76.9057 41.243C76.9924 40.8703 76.9881 40.541 76.8927 40.255C76.7974 39.9603 76.6284 39.7307 76.3857 39.566C76.1517 39.3927 75.8614 39.306 75.5147 39.306C75.1767 39.306 74.8864 39.3883 74.6437 39.553C74.4011 39.7177 74.2191 39.9603 74.0977 40.281C73.9764 40.6017 73.9287 40.9917 73.9547 41.451C73.9201 41.8497 73.9677 42.2007 74.0977 42.504C74.2277 42.8073 74.4271 43.0457 74.6957 43.219C74.9644 43.3837 75.2894 43.466 75.6707 43.466C76.0174 43.466 76.3121 43.3967 76.5547 43.258C76.8061 43.1193 77.0011 42.9287 77.1397 42.686L78.6997 43.427C78.5611 43.7737 78.3401 44.077 78.0367 44.337C77.7421 44.597 77.3911 44.8007 76.9837 44.948C76.5764 45.0867 76.1301 45.156 75.6447 45.156ZM84.4719 45L81.9369 35.315H84.1209L86.0319 43.427H85.4469L87.4619 35.315H89.5419L91.5569 43.427H90.9719L92.8829 35.315H95.0669L92.5319 45H90.1919L88.1639 37.2H88.8399L86.8119 45H84.4719ZM94.8354 45L98.1114 35.315H100.789L104.065 45H101.868L101.218 43.024H97.6694L97.0194 45H94.8354ZM98.2284 41.269H100.659L99.1774 36.693H99.7234L98.2284 41.269ZM108.468 45.156C107.861 45.156 107.289 45.0477 106.752 44.831C106.223 44.6057 105.764 44.2893 105.374 43.882C104.993 43.4747 104.707 42.9937 104.516 42.439L106.167 41.698C106.41 42.2267 106.743 42.6427 107.168 42.946C107.601 43.2493 108.078 43.401 108.598 43.401C108.875 43.401 109.114 43.3577 109.313 43.271C109.512 43.1843 109.668 43.0673 109.781 42.92C109.894 42.764 109.95 42.582 109.95 42.374C109.95 42.1487 109.881 41.958 109.742 41.802C109.603 41.6373 109.387 41.5073 109.092 41.412L107.194 40.788C106.423 40.5367 105.842 40.1813 105.452 39.722C105.062 39.254 104.867 38.695 104.867 38.045C104.867 37.473 105.006 36.9703 105.283 36.537C105.569 36.1037 105.963 35.7657 106.466 35.523C106.977 35.2803 107.562 35.159 108.221 35.159C108.802 35.159 109.339 35.2587 109.833 35.458C110.327 35.6573 110.752 35.939 111.107 36.303C111.471 36.667 111.744 37.1047 111.926 37.616L110.288 38.357C110.106 37.9063 109.833 37.5553 109.469 37.304C109.105 37.044 108.689 36.914 108.221 36.914C107.952 36.914 107.714 36.9573 107.506 37.044C107.298 37.1307 107.138 37.2563 107.025 37.421C106.912 37.577 106.856 37.759 106.856 37.967C106.856 38.1923 106.93 38.3917 107.077 38.565C107.224 38.7297 107.445 38.8597 107.74 38.955L109.599 39.553C110.379 39.8043 110.96 40.1553 111.341 40.606C111.731 41.0567 111.926 41.607 111.926 42.257C111.926 42.8203 111.779 43.323 111.484 43.765C111.189 44.1983 110.782 44.5407 110.262 44.792C109.751 45.0347 109.153 45.156 108.468 45.156ZM112.52 45L115.796 35.315H118.474L121.75 45H119.553L118.903 43.024H115.354L114.704 45H112.52ZM115.913 41.269H118.344L116.862 36.693H117.408L115.913 41.269ZM122.756 45V35.315H124.771V43.245H128.866V45H122.756ZM129.866 45V35.315H131.881V39.501H135.651V35.315H137.666V45H135.651V41.256H131.881V45H129.866ZM138.672 45L141.948 35.315H144.626L147.902 45H145.705L145.055 43.024H141.506L140.856 45H138.672ZM142.065 41.269H144.496L143.014 36.693H143.56L142.065 41.269ZM148.597 45V43.44L151.197 40.762C151.708 40.2333 152.094 39.8173 152.354 39.514C152.622 39.202 152.804 38.942 152.9 38.734C153.004 38.526 153.056 38.3223 153.056 38.123C153.056 37.7677 152.939 37.4903 152.705 37.291C152.479 37.083 152.193 36.979 151.847 36.979C151.491 36.979 151.175 37.083 150.898 37.291C150.62 37.4903 150.417 37.798 150.287 38.214L148.532 37.642C148.636 37.1393 148.852 36.7017 149.182 36.329C149.511 35.9563 149.91 35.6703 150.378 35.471C150.846 35.263 151.335 35.159 151.847 35.159C152.488 35.159 153.051 35.2717 153.537 35.497C154.022 35.7223 154.399 36.0387 154.668 36.446C154.936 36.8533 155.071 37.33 155.071 37.876C155.071 38.2227 155.01 38.565 154.889 38.903C154.767 39.2323 154.581 39.5703 154.33 39.917C154.087 40.255 153.771 40.6233 153.381 41.022L151.158 43.31H155.162V45H148.597ZM160.345 45.156C159.574 45.156 158.893 44.948 158.304 44.532C157.723 44.116 157.268 43.531 156.939 42.777C156.61 42.023 156.445 41.1477 156.445 40.151C156.445 39.1457 156.605 38.2703 156.926 37.525C157.255 36.7797 157.71 36.199 158.291 35.783C158.88 35.367 159.561 35.159 160.332 35.159C161.121 35.159 161.805 35.367 162.386 35.783C162.975 36.199 163.43 36.784 163.751 37.538C164.08 38.2833 164.245 39.1543 164.245 40.151C164.245 41.1477 164.08 42.023 163.751 42.777C163.43 43.5223 162.975 44.1073 162.386 44.532C161.805 44.948 161.125 45.156 160.345 45.156ZM160.358 43.336C160.757 43.336 161.095 43.2103 161.372 42.959C161.649 42.7077 161.862 42.3437 162.009 41.867C162.156 41.3903 162.23 40.8183 162.23 40.151C162.23 39.4837 162.156 38.916 162.009 38.448C161.862 37.9713 161.645 37.6073 161.359 37.356C161.082 37.1047 160.739 36.979 160.332 36.979C159.933 36.979 159.595 37.1047 159.318 37.356C159.041 37.6073 158.828 37.9713 158.681 38.448C158.534 38.916 158.46 39.4837 158.46 40.151C158.46 40.8097 158.534 41.3773 158.681 41.854C158.828 42.3307 159.041 42.699 159.318 42.959C159.604 43.2103 159.951 43.336 160.358 43.336Z" fill="#F1BCDD"/>
<path d="M18.672 25V23.08L21.872 19.784C22.5013 19.1333 22.976 18.6213 23.296 18.248C23.6267 17.864 23.8507 17.544 23.968 17.288C24.096 17.032 24.16 16.7813 24.16 16.536C24.16 16.0987 24.016 15.7573 23.728 15.512C23.4507 15.256 23.0987 15.128 22.672 15.128C22.2347 15.128 21.8453 15.256 21.504 15.512C21.1627 15.7573 20.912 16.136 20.752 16.648L18.592 15.944C18.72 15.3253 18.9867 14.7867 19.392 14.328C19.7973 13.8693 20.288 13.5173 20.864 13.272C21.44 13.016 22.0427 12.888 22.672 12.888C23.4613 12.888 24.1547 13.0267 24.752 13.304C25.3493 13.5813 25.8133 13.9707 26.144 14.472C26.4747 14.9733 26.64 15.56 26.64 16.232C26.64 16.6587 26.5653 17.08 26.416 17.496C26.2667 17.9013 26.0373 18.3173 25.728 18.744C25.4293 19.16 25.04 19.6133 24.56 20.104L21.824 22.92H26.752V25H18.672ZM33.1313 25.192C32.1819 25.192 31.3446 24.936 30.6193 24.424C29.9046 23.912 29.3446 23.192 28.9393 22.264C28.5339 21.336 28.3313 20.2587 28.3313 19.032C28.3313 17.7947 28.5286 16.7173 28.9233 15.8C29.3286 14.8827 29.8886 14.168 30.6033 13.656C31.3286 13.144 32.1659 12.888 33.1153 12.888C34.0859 12.888 34.9286 13.144 35.6433 13.656C36.3686 14.168 36.9286 14.888 37.3233 15.816C37.7286 16.7333 37.9313 17.8053 37.9313 19.032C37.9313 20.2587 37.7286 21.336 37.3233 22.264C36.9286 23.1813 36.3686 23.9013 35.6433 24.424C34.9286 24.936 34.0913 25.192 33.1313 25.192ZM33.1473 22.952C33.6379 22.952 34.0539 22.7973 34.3953 22.488C34.7366 22.1787 34.9979 21.7307 35.1793 21.144C35.3606 20.5573 35.4513 19.8533 35.4513 19.032C35.4513 18.2107 35.3606 17.512 35.1793 16.936C34.9979 16.3493 34.7313 15.9013 34.3793 15.592C34.0379 15.2827 33.6166 15.128 33.1153 15.128C32.6246 15.128 32.2086 15.2827 31.8673 15.592C31.5259 15.9013 31.2646 16.3493 31.0833 16.936C30.9019 17.512 30.8113 18.2107 30.8113 19.032C30.8113 19.8427 30.9019 20.5413 31.0833 21.128C31.2646 21.7147 31.5259 22.168 31.8673 22.488C32.2193 22.7973 32.6459 22.952 33.1473 22.952ZM41.2624 25L50.8944 13.08H53.3584L43.7264 25H41.2624ZM43.1664 19.128C42.569 19.128 42.0304 18.9893 41.5504 18.712C41.081 18.424 40.7077 18.0453 40.4304 17.576C40.153 17.1067 40.0144 16.584 40.0144 16.008C40.0144 15.432 40.153 14.9093 40.4304 14.44C40.7077 13.96 41.081 13.5813 41.5504 13.304C42.0304 13.0267 42.569 12.888 43.1664 12.888C43.7637 12.888 44.297 13.0267 44.7664 13.304C45.2357 13.5813 45.609 13.96 45.8864 14.44C46.1637 14.9093 46.3024 15.432 46.3024 16.008C46.3024 16.584 46.1637 17.1067 45.8864 17.576C45.609 18.0453 45.2357 18.424 44.7664 18.712C44.297 18.9893 43.7637 19.128 43.1664 19.128ZM43.1664 17.368C43.4544 17.368 43.6944 17.304 43.8864 17.176C44.0784 17.0373 44.2224 16.8667 44.3184 16.664C44.4144 16.4507 44.4624 16.232 44.4624 16.008C44.4624 15.7733 44.4144 15.5547 44.3184 15.352C44.2224 15.1493 44.0784 14.984 43.8864 14.856C43.6944 14.7173 43.4544 14.648 43.1664 14.648C42.8784 14.648 42.6384 14.7173 42.4464 14.856C42.2544 14.984 42.105 15.1493 41.9984 15.352C41.9024 15.5547 41.8544 15.7733 41.8544 16.008C41.8544 16.232 41.9024 16.4507 41.9984 16.664C42.105 16.8667 42.2544 17.0373 42.4464 17.176C42.6384 17.304 42.8784 17.368 43.1664 17.368ZM51.4384 25.192C50.841 25.192 50.3024 25.0533 49.8224 24.776C49.353 24.488 48.9797 24.1093 48.7024 23.64C48.425 23.1707 48.2864 22.648 48.2864 22.072C48.2864 21.496 48.425 20.9733 48.7024 20.504C48.9797 20.024 49.353 19.6453 49.8224 19.368C50.3024 19.0907 50.841 18.952 51.4384 18.952C52.0357 18.952 52.569 19.0907 53.0384 19.368C53.5077 19.6453 53.881 20.024 54.1584 20.504C54.4357 20.9733 54.5744 21.496 54.5744 22.072C54.5744 22.648 54.4357 23.1707 54.1584 23.64C53.881 24.1093 53.5077 24.488 53.0384 24.776C52.569 25.0533 52.0357 25.192 51.4384 25.192ZM51.4384 23.432C51.7264 23.432 51.9664 23.368 52.1584 23.24C52.3504 23.1013 52.4944 22.9307 52.5904 22.728C52.6864 22.5147 52.7344 22.296 52.7344 22.072C52.7344 21.8373 52.6864 21.6187 52.5904 21.416C52.4944 21.2133 52.3504 21.048 52.1584 20.92C51.9664 20.7813 51.7264 20.712 51.4384 20.712C51.161 20.712 50.921 20.7813 50.7184 20.92C50.5264 21.048 50.377 21.2133 50.2704 21.416C50.1744 21.6187 50.1264 21.8373 50.1264 22.072C50.1264 22.296 50.1744 22.5147 50.2704 22.728C50.377 22.9307 50.5264 23.1013 50.7184 23.24C50.921 23.368 51.161 23.432 51.4384 23.432ZM63.9504 25.192C63.0864 25.192 62.297 24.9947 61.5824 24.6C60.8784 24.2053 60.313 23.6667 59.8864 22.984C59.4704 22.2907 59.2624 21.5067 59.2624 20.632C59.2624 19.7467 59.4704 18.9627 59.8864 18.28C60.313 17.5973 60.8784 17.0587 61.5824 16.664C62.297 16.2693 63.0864 16.072 63.9504 16.072C64.8144 16.072 65.5984 16.2693 66.3024 16.664C67.0064 17.0587 67.5664 17.5973 67.9824 18.28C68.409 18.9627 68.6224 19.7467 68.6224 20.632C68.6224 21.5067 68.409 22.2907 67.9824 22.984C67.5664 23.6667 67.0064 24.2053 66.3024 24.6C65.5984 24.9947 64.8144 25.192 63.9504 25.192ZM63.9504 23.032C64.3877 23.032 64.7664 22.9307 65.0864 22.728C65.417 22.5253 65.673 22.2427 65.8544 21.88C66.0464 21.5173 66.1424 21.1013 66.1424 20.632C66.1424 20.1627 66.0464 19.752 65.8544 19.4C65.673 19.0373 65.417 18.7547 65.0864 18.552C64.7664 18.3387 64.3877 18.232 63.9504 18.232C63.513 18.232 63.129 18.3387 62.7984 18.552C62.4677 18.7547 62.2064 19.0373 62.0144 19.4C61.833 19.752 61.7424 20.1627 61.7424 20.632C61.7424 21.1013 61.833 21.5173 62.0144 21.88C62.2064 22.2427 62.4677 22.5253 62.7984 22.728C63.129 22.9307 63.513 23.032 63.9504 23.032ZM70.936 25V18.344H69.464V16.264H70.936V16.136C70.936 15.4427 71.0693 14.856 71.336 14.376C71.6133 13.896 72.008 13.528 72.52 13.272C73.032 13.016 73.6507 12.888 74.376 12.888C74.5147 12.888 74.664 12.8987 74.824 12.92C74.984 12.9307 75.1173 12.9467 75.224 12.968V15.016C75.1173 14.9947 75.0213 14.984 74.936 14.984C74.8613 14.9733 74.7813 14.968 74.696 14.968C74.248 14.968 73.9067 15.0693 73.672 15.272C73.448 15.464 73.336 15.752 73.336 16.136V16.264H76.808V18.344H73.336V25H70.936ZM77.336 25V18.344H75.864V16.264H77.336V16.136C77.336 15.4427 77.4693 14.856 77.736 14.376C78.0133 13.896 78.408 13.528 78.92 13.272C79.432 13.016 80.0507 12.888 80.776 12.888C80.9147 12.888 81.064 12.8987 81.224 12.92C81.384 12.9307 81.5173 12.9467 81.624 12.968V15.016C81.5173 14.9947 81.4213 14.984 81.336 14.984C81.2613 14.9733 81.1813 14.968 81.096 14.968C80.648 14.968 80.3067 15.0693 80.072 15.272C79.848 15.464 79.736 15.752 79.736 16.136V16.264H81.608V18.344H79.736V25H77.336ZM87.0681 28.52C86.8121 28.52 86.5615 28.4987 86.3161 28.456C86.0815 28.4133 85.8735 28.344 85.6921 28.248V26.28C85.8415 26.3227 86.0175 26.36 86.2201 26.392C86.4228 26.424 86.6095 26.44 86.7801 26.44C87.2495 26.44 87.5855 26.328 87.7881 26.104C87.9908 25.8907 88.1561 25.6453 88.2841 25.368L88.8761 24.008L88.8441 26.008L85.0041 16.264H87.5801L90.1241 23.192H89.1641L91.7081 16.264H94.2841L90.5401 25.816C90.3055 26.4133 90.0175 26.9147 89.6761 27.32C89.3348 27.7253 88.9455 28.024 88.5081 28.216C88.0815 28.4187 87.6015 28.52 87.0681 28.52ZM99.5129 25.192C98.6489 25.192 97.8595 24.9947 97.1449 24.6C96.4409 24.2053 95.8755 23.6667 95.4489 22.984C95.0329 22.2907 94.8249 21.5067 94.8249 20.632C94.8249 19.7467 95.0329 18.9627 95.4489 18.28C95.8755 17.5973 96.4409 17.0587 97.1449 16.664C97.8595 16.2693 98.6489 16.072 99.5129 16.072C100.377 16.072 101.161 16.2693 101.865 16.664C102.569 17.0587 103.129 17.5973 103.545 18.28C103.972 18.9627 104.185 19.7467 104.185 20.632C104.185 21.5067 103.972 22.2907 103.545 22.984C103.129 23.6667 102.569 24.2053 101.865 24.6C101.161 24.9947 100.377 25.192 99.5129 25.192ZM99.5129 23.032C99.9502 23.032 100.329 22.9307 100.649 22.728C100.98 22.5253 101.236 22.2427 101.417 21.88C101.609 21.5173 101.705 21.1013 101.705 20.632C101.705 20.1627 101.609 19.752 101.417 19.4C101.236 19.0373 100.98 18.7547 100.649 18.552C100.329 18.3387 99.9502 18.232 99.5129 18.232C99.0755 18.232 98.6915 18.3387 98.3609 18.552C98.0302 18.7547 97.7689 19.0373 97.5769 19.4C97.3955 19.752 97.3049 20.1627 97.3049 20.632C97.3049 21.1013 97.3955 21.5173 97.5769 21.88C97.7689 22.2427 98.0302 22.5253 98.3609 22.728C98.6915 22.9307 99.0755 23.032 99.5129 23.032ZM108.735 25.192C108.031 25.192 107.428 25.0427 106.927 24.744C106.436 24.4347 106.063 24.008 105.807 23.464C105.551 22.92 105.423 22.2853 105.423 21.56V16.264H107.823V21.368C107.823 21.6987 107.887 21.992 108.015 22.248C108.153 22.4933 108.345 22.6853 108.591 22.824C108.836 22.9627 109.113 23.032 109.423 23.032C109.743 23.032 110.02 22.9627 110.255 22.824C110.5 22.6853 110.687 22.4933 110.815 22.248C110.953 21.992 111.023 21.6987 111.023 21.368V16.264H113.423V25H111.183V23.272L111.311 23.656C111.108 24.1787 110.777 24.568 110.319 24.824C109.871 25.0693 109.343 25.192 108.735 25.192ZM115.177 25V16.264H117.417V18.36L117.257 18.056C117.449 17.32 117.764 16.824 118.201 16.568C118.649 16.3013 119.177 16.168 119.785 16.168H120.297V18.248H119.545C118.958 18.248 118.484 18.4293 118.121 18.792C117.758 19.144 117.577 19.6453 117.577 20.296V25H115.177ZM124.224 25V16.264H126.464V17.992L126.336 17.608C126.538 17.0853 126.864 16.7013 127.312 16.456C127.77 16.2 128.304 16.072 128.912 16.072C129.573 16.072 130.149 16.2107 130.64 16.488C131.141 16.7653 131.53 17.1547 131.808 17.656C132.085 18.1467 132.224 18.7227 132.224 19.384V25H129.824V19.896C129.824 19.5547 129.754 19.2613 129.616 19.016C129.488 18.7707 129.301 18.5787 129.056 18.44C128.821 18.3013 128.544 18.232 128.224 18.232C127.914 18.232 127.637 18.3013 127.392 18.44C127.146 18.5787 126.954 18.7707 126.816 19.016C126.688 19.2613 126.624 19.5547 126.624 19.896V25H124.224ZM138.01 25.192C137.082 25.192 136.277 24.9893 135.594 24.584C134.911 24.168 134.383 23.6133 134.01 22.92C133.637 22.2267 133.45 21.4587 133.45 20.616C133.45 19.7413 133.642 18.9627 134.026 18.28C134.421 17.5973 134.949 17.0587 135.61 16.664C136.271 16.2693 137.018 16.072 137.85 16.072C138.543 16.072 139.157 16.184 139.69 16.408C140.223 16.6213 140.671 16.9253 141.034 17.32C141.407 17.7147 141.69 18.1733 141.882 18.696C142.074 19.208 142.17 19.768 142.17 20.376C142.17 20.5467 142.159 20.7173 142.138 20.888C142.127 21.048 142.101 21.1867 142.058 21.304H135.514V19.544H140.698L139.562 20.376C139.669 19.9173 139.663 19.512 139.546 19.16C139.429 18.7973 139.221 18.5147 138.922 18.312C138.634 18.0987 138.277 17.992 137.85 17.992C137.434 17.992 137.077 18.0933 136.778 18.296C136.479 18.4987 136.255 18.7973 136.106 19.192C135.957 19.5867 135.898 20.0667 135.93 20.632C135.887 21.1227 135.946 21.5547 136.106 21.928C136.266 22.3013 136.511 22.5947 136.842 22.808C137.173 23.0107 137.573 23.112 138.042 23.112C138.469 23.112 138.831 23.0267 139.13 22.856C139.439 22.6853 139.679 22.4507 139.85 22.152L141.77 23.064C141.599 23.4907 141.327 23.864 140.954 24.184C140.591 24.504 140.159 24.7547 139.658 24.936C139.157 25.1067 138.607 25.192 138.01 25.192ZM142.739 25L145.795 20.616L142.723 16.264H145.507L147.811 19.656H146.595L148.899 16.264H151.683L148.611 20.616L151.651 25H148.883L146.627 21.608H147.779L145.523 25H142.739ZM156.947 25.096C155.891 25.096 155.07 24.8133 154.483 24.248C153.907 23.672 153.619 22.872 153.619 21.848V18.344H152.147V16.264H152.227C152.675 16.264 153.017 16.152 153.251 15.928C153.497 15.704 153.619 15.368 153.619 14.92V14.28H156.019V16.264H158.067V18.344H156.019V21.688C156.019 21.9867 156.073 22.2373 156.179 22.44C156.286 22.632 156.451 22.776 156.675 22.872C156.899 22.968 157.177 23.016 157.507 23.016C157.582 23.016 157.667 23.0107 157.763 23C157.859 22.9893 157.961 22.9787 158.067 22.968V25C157.907 25.0213 157.726 25.0427 157.523 25.064C157.321 25.0853 157.129 25.096 156.947 25.096ZM162.349 25V16.264H164.589V18.36L164.429 18.056C164.621 17.32 164.935 16.824 165.373 16.568C165.821 16.3013 166.349 16.168 166.957 16.168H167.469V18.248H166.717C166.13 18.248 165.655 18.4293 165.293 18.792C164.93 19.144 164.749 19.6453 164.749 20.296V25H162.349ZM168.521 25V16.264H170.921V25H168.521ZM168.521 15.48V13.08H170.921V15.48H168.521ZM176.789 25.192C175.936 25.192 175.173 24.9893 174.501 24.584C173.829 24.1787 173.296 23.6293 172.901 22.936C172.517 22.2427 172.325 21.4747 172.325 20.632C172.325 19.7787 172.522 19.0107 172.917 18.328C173.312 17.6347 173.845 17.0853 174.517 16.68C175.189 16.2747 175.941 16.072 176.773 16.072C177.413 16.072 177.978 16.1947 178.469 16.44C178.97 16.6747 179.365 17.0107 179.653 17.448L179.285 17.928V12.888H181.685V25H179.445V23.4L179.669 23.896C179.37 24.3227 178.965 24.648 178.453 24.872C177.941 25.0853 177.386 25.192 176.789 25.192ZM177.077 23.032C177.514 23.032 177.898 22.9307 178.229 22.728C178.56 22.5253 178.816 22.2427 178.997 21.88C179.189 21.5173 179.285 21.1013 179.285 20.632C179.285 20.1627 179.189 19.7467 178.997 19.384C178.816 19.0213 178.56 18.7387 178.229 18.536C177.898 18.3333 177.514 18.232 177.077 18.232C176.64 18.232 176.245 18.3387 175.893 18.552C175.552 18.7547 175.285 19.0373 175.093 19.4C174.901 19.752 174.805 20.1627 174.805 20.632C174.805 21.1013 174.901 21.5173 175.093 21.88C175.285 22.2427 175.552 22.5253 175.893 22.728C176.245 22.9307 176.64 23.032 177.077 23.032ZM187.651 25.192C186.723 25.192 185.917 24.9893 185.235 24.584C184.552 24.168 184.024 23.6133 183.651 22.92C183.277 22.2267 183.09 21.4587 183.09 20.616C183.09 19.7413 183.283 18.9627 183.667 18.28C184.061 17.5973 184.589 17.0587 185.251 16.664C185.912 16.2693 186.659 16.072 187.491 16.072C188.184 16.072 188.797 16.184 189.331 16.408C189.864 16.6213 190.312 16.9253 190.675 17.32C191.048 17.7147 191.331 18.1733 191.523 18.696C191.715 19.208 191.811 19.768 191.811 20.376C191.811 20.5467 191.8 20.7173 191.779 20.888C191.768 21.048 191.741 21.1867 191.699 21.304H185.155V19.544H190.339L189.203 20.376C189.309 19.9173 189.304 19.512 189.187 19.16C189.069 18.7973 188.861 18.5147 188.563 18.312C188.275 18.0987 187.917 17.992 187.491 17.992C187.075 17.992 186.717 18.0933 186.419 18.296C186.12 18.4987 185.896 18.7973 185.747 19.192C185.597 19.5867 185.539 20.0667 185.571 20.632C185.528 21.1227 185.587 21.5547 185.747 21.928C185.907 22.3013 186.152 22.5947 186.483 22.808C186.813 23.0107 187.213 23.112 187.683 23.112C188.109 23.112 188.472 23.0267 188.771 22.856C189.08 22.6853 189.32 22.4507 189.491 22.152L191.411 23.064C191.24 23.4907 190.968 23.864 190.595 24.184C190.232 24.504 189.8 24.7547 189.299 24.936C188.797 25.1067 188.248 25.192 187.651 25.192ZM194.504 21.32L194.344 13.08H196.744L196.584 21.32H194.504ZM194.344 25V22.6H196.744V25H194.344Z" fill="white"/>
</svg>
