<svg width="41" height="22" viewBox="0 0 41 22" fill="none" xmlns="http://www.w3.org/2000/svg">
<path d="M25.9843 16.7918H13.5707" stroke="#5C5C6E" stroke-width="2" stroke-miterlimit="10" stroke-linecap="round"/>
<path d="M2.57069 7.39999C2.41941 7.69429 2.28507 7.99311 2.15735 8.29609C1.39306 10.1326 0.999706 12.1022 1 14.0914C0.999729 14.4453 1.06916 14.7957 1.20432 15.1227C1.33948 15.4498 1.53775 15.747 1.78777 15.9974C2.03778 16.2478 2.33467 16.4465 2.66148 16.5821C2.98829 16.7178 3.33862 16.7877 3.69247 16.788H5.73514" stroke="#5C5C6E" stroke-width="2" stroke-miterlimit="10" stroke-linecap="round"/>
<path d="M35.7187 7.40363C35.5889 7.99778 35.5237 8.6042 35.524 9.21236C35.524 10.3234 36.7318 11.2245 38.2207 11.2245H39.3201" stroke="#5C5C6E" stroke-width="2" stroke-miterlimit="10" stroke-linecap="round"/>
<path d="M29.9011 20.3919C32.0733 20.3919 33.8343 18.6309 33.8343 16.4586C33.8343 14.2863 32.0733 12.5253 29.9011 12.5253C27.7288 12.5253 25.9678 14.2863 25.9678 16.4586C25.9678 18.6309 27.7288 20.3919 29.9011 20.3919Z" stroke="#5C5C6E" stroke-width="2" stroke-miterlimit="10" stroke-linecap="round"/>
<path d="M29.9011 18.1665C30.7701 18.1665 31.4746 17.462 31.4746 16.593C31.4746 15.7239 30.7701 15.0194 29.9011 15.0194C29.032 15.0194 28.3275 15.7239 28.3275 16.593C28.3275 17.462 29.032 18.1665 29.9011 18.1665Z" stroke="#5C5C6E" stroke-miterlimit="10" stroke-linecap="round"/>
<path d="M9.6552 20.3919C11.8275 20.3919 13.5885 18.6309 13.5885 16.4586C13.5885 14.2863 11.8275 12.5253 9.6552 12.5253C7.48291 12.5253 5.72192 14.2863 5.72192 16.4586C5.72192 18.6309 7.48291 20.3919 9.6552 20.3919Z" stroke="#5C5C6E" stroke-width="2" stroke-miterlimit="10" stroke-linecap="round"/>
<path d="M9.65559 18.1665C10.5246 18.1665 11.2292 17.462 11.2292 16.593C11.2292 15.7239 10.5246 15.0194 9.65559 15.0194C8.78654 15.0194 8.08203 15.7239 8.08203 16.593C8.08203 17.462 8.78654 18.1665 9.65559 18.1665Z" stroke="#5C5C6E" stroke-miterlimit="10" stroke-linecap="round"/>
<path d="M27.8444 7.40161H3.01379" stroke="#5C5C6E" stroke-width="2" stroke-miterlimit="10" stroke-linecap="round"/>
<path d="M16.5789 1L16.4058 7.38476" stroke="#5C5C6E" stroke-width="2" stroke-miterlimit="10" stroke-linecap="round"/>
<path d="M33.817 16.7896H36.6277C37.3416 16.7896 38.0263 16.506 38.5312 16.0013C39.0361 15.4965 39.3199 14.812 39.3201 14.0981V14.0981V10.0986C39.3201 9.38339 39.036 8.69766 38.5303 8.19195C38.0246 7.68624 37.3387 7.40202 36.6235 7.40202H28.5511C28.1971 7.402 27.8467 7.33207 27.5198 7.19616C27.1929 7.06025 26.8961 6.86104 26.6465 6.61006L23.8358 2.92639C23.3787 2.32816 22.7898 1.84342 22.115 1.50939C21.4403 1.17537 20.6976 1.00118 19.9447 1.0004H15.5344C14.1943 1.00033 12.8743 1.32633 11.6883 1.95038C10.5024 2.57443 9.48612 3.47779 8.72725 4.58235L6.78955 7.40202" stroke="#5C5C6E" stroke-width="2" stroke-miterlimit="10" stroke-linecap="round"/>
<path d="M1.56832 10.0007H3.542C3.86297 10.0066 4.16881 10.1383 4.39372 10.3674C4.61862 10.5965 4.74461 10.9045 4.74461 11.2255C4.74461 11.5466 4.61862 11.8548 4.39372 12.0839C4.16881 12.313 3.86297 12.4447 3.542 12.4506H1.422C1.31378 12.4525 1.20587 12.4386 1.10168 12.4092" stroke="#5C5C6E" stroke-width="2" stroke-miterlimit="10" stroke-linecap="round"/>
</svg>
