<svg width="36" height="26" viewBox="0 0 36 26" fill="none" xmlns="http://www.w3.org/2000/svg">
<path d="M11.0293 11.3201C7.52373 11.3921 4.42096 14.4759 3.2207 17.6521L3.09082 17.9959L0 17.9597C0.000495017 15.818 0.883239 13.764 2.4541 12.2498C4.02487 10.7357 6.15503 9.88527 8.37598 9.88553H9.91211L11.0293 11.3201Z" fill="#5C5C6E"/>
<path d="M11.0293 11.3201C7.52373 11.3921 4.42096 14.4759 3.2207 17.6521L3.09082 17.9959L0 17.9597C0.000495017 15.818 0.883239 13.764 2.4541 12.2498C4.02487 10.7357 6.15503 9.88527 8.37598 9.88553H9.91211L11.0293 11.3201Z" stroke="#5C5C6E"/>
<path d="M9.91199 11.2845V10.5407C9.91199 9.82539 10.4141 9.24472 11.032 9.24472H14.395C15.014 9.24472 15.515 9.82539 15.515 10.5407V10.8762" stroke="#5C5C6E" stroke-width="2" stroke-miterlimit="10" stroke-linecap="round"/>
<path d="M29.8047 15.2063L26.8475 9.50357" stroke="#5C5C6E" stroke-width="2" stroke-miterlimit="10" stroke-linecap="round"/>
<path d="M9.32141 16.0347H13.085" stroke="#5C5C6E" stroke-width="2" stroke-miterlimit="10" stroke-linecap="round"/>
<path d="M30.8799 24.6247C32.9585 24.6247 34.6435 22.9998 34.6435 20.9955C34.6435 18.9912 32.9585 17.3663 30.8799 17.3663C28.8013 17.3663 27.1163 18.9912 27.1163 20.9955C27.1163 22.9998 28.8013 24.6247 30.8799 24.6247Z" stroke="#5C5C6E" stroke-width="2" stroke-miterlimit="10" stroke-linecap="round"/>
<path d="M14.3424 19.3485C14.6351 19.9047 14.7741 20.5243 14.7461 21.1475C14.7181 21.7707 14.524 22.3763 14.1824 22.906C13.8409 23.4358 13.3635 23.8717 12.7964 24.1716C12.2293 24.4716 11.5915 24.6255 10.9447 24.6185C10.2979 24.6115 9.6639 24.4439 9.10386 24.1318C8.54383 23.8196 8.07669 23.3736 7.74755 22.8366C7.4184 22.2996 7.23838 21.6899 7.22483 21.0663C7.21127 20.4427 7.36466 19.8263 7.67019 19.2765" stroke="#5C5C6E" stroke-width="2" stroke-miterlimit="10" stroke-linecap="round"/>
<path d="M22.7379 2.10449L25.3931 3.57655C25.6098 3.69591 25.7904 3.86777 25.917 4.07513C26.0437 4.28249 26.1119 4.51816 26.1151 4.75879V6.39391" stroke="#5C5C6E" stroke-width="2" stroke-miterlimit="10" stroke-linecap="round"/>
<path d="M15.2308 20.886L23.4994 20.9055C23.8514 20.9068 24.1944 20.799 24.478 20.5981C24.7617 20.3972 24.9709 20.1137 25.0749 19.7895L25.2403 19.2758C25.4747 18.5613 25.8528 17.8985 26.353 17.325C26.8531 16.7515 27.4655 16.2786 28.1552 15.9333C28.8449 15.5881 29.5983 15.3772 30.3725 15.3127C31.1467 15.2483 31.9265 15.3315 32.6674 15.5577C32.8152 15.6028 32.961 15.6535 33.1049 15.7096" stroke="#5C5C6E" stroke-width="2" stroke-miterlimit="10" stroke-linecap="round"/>
<path d="M14.3424 19.3485L7.67018 19.2765L3.04382 19.2272C3.04422 17.0857 3.9266 15.0321 5.49692 13.5178C7.06724 12.0036 9.19694 11.1527 11.4177 11.1523L16.6817 11.0742C16.9496 11.0705 17.208 11.1694 17.4003 11.3493C17.5926 11.5292 17.703 11.7753 17.7073 12.0336V12.0484L17.6748 12.6006V16.7766C17.6748 16.9412 17.7084 17.1041 17.7737 17.2561C17.8389 17.4081 17.9346 17.5462 18.0553 17.6625C18.1759 17.7788 18.3191 17.8711 18.4768 17.9341C18.6344 17.997 18.8034 18.0294 18.974 18.0294H20.7738C23.0078 18.0294 24.1711 15.8467 24.1711 13.1511V8.73315C24.171 8.3054 24.0169 7.89095 23.7351 7.56063L22.3127 5.89312C22.1331 5.68268 21.9075 5.51318 21.6519 5.39685C21.3964 5.28051 21.1173 5.22021 20.8347 5.22028H19.9603" stroke="#5C5C6E" stroke-width="2" stroke-miterlimit="10" stroke-linecap="round"/>
<path d="M22.6777 1V3.4858" stroke="#5C5C6E" stroke-width="2" stroke-miterlimit="10" stroke-linecap="round"/>
<path d="M24.1729 9.05248H27.3149C27.6187 9.05248 27.9102 8.93607 28.125 8.72887C28.3399 8.52167 28.4606 8.24065 28.4606 7.94763C28.4606 7.65461 28.3399 7.37359 28.125 7.1664C27.9102 6.9592 27.6187 6.8428 27.3149 6.8428H23.1276" stroke="#5C5C6E" stroke-miterlimit="10" stroke-linecap="round"/>
<path d="M30.7269 6.17249C30.2763 6.17258 29.8442 6.34522 29.5256 6.65246C29.207 6.95969 29.0279 7.37634 29.0278 7.81083V7.81083C29.0278 8.24526 29.2068 8.66189 29.5254 8.96908C29.8439 9.27626 30.276 9.44883 30.7265 9.44883H31.3111C31.3811 9.44888 31.4503 9.43563 31.5149 9.40985C31.5795 9.38407 31.6383 9.34626 31.6877 9.29858C31.7371 9.2509 31.7763 9.19429 31.8031 9.13198C31.8298 9.06968 31.8436 9.00291 31.8435 8.93548V6.68583C31.8434 6.54971 31.7873 6.41919 31.6875 6.32293C31.5876 6.22668 31.4523 6.17258 31.3111 6.17249H30.7269Z" stroke="#5C5C6E" stroke-width="2" stroke-miterlimit="10" stroke-linecap="round"/>
</svg>
