<svg width="37" height="37" viewBox="0 0 37 37" fill="none" xmlns="http://www.w3.org/2000/svg">
<path d="M21.3486 3.3418L22.3552 2.22967L22.355 2.22953L21.3486 3.3418ZM21.7627 4.88379L20.2701 5.03289L20.2702 5.03399L21.7627 4.88379ZM21.8545 5.7959L23.3471 5.6468L23.347 5.64569L21.8545 5.7959ZM22.6514 8.47559L22.077 9.86126L22.0772 9.86135L22.6514 8.47559ZM25.1104 7.14551L26.0601 8.30653L26.0604 8.3063L25.1104 7.14551ZM25.8203 6.56445L24.8706 5.40343L24.8703 5.40366L25.8203 6.56445ZM27.2031 5.76758L27.2779 4.26944L27.2776 4.26943L27.2031 5.76758ZM28.5 6.69824L29.5607 5.63758L28.5 6.69824ZM30.3008 8.49902L31.3614 7.43836L30.3008 8.49902ZM31.2324 9.79688L32.7306 9.72263L32.7306 9.72223L31.2324 9.79688ZM30.4346 11.1797L29.2737 10.2297L29.2729 10.2308L30.4346 11.1797ZM29.8555 11.8887L31.0163 12.8386L31.0172 12.8376L29.8555 11.8887ZM28.5244 14.3467L27.1384 14.9202L27.1385 14.9205L28.5244 14.3467ZM31.2031 15.1455L31.0536 16.638L31.0547 16.6381L31.2031 15.1455ZM32.1162 15.2363L32.2658 13.7438L32.2647 13.7437L32.1162 15.2363ZM33.6582 15.6504L34.7705 14.644L34.7697 14.6432L33.6582 15.6504ZM33.917 17.2266H35.417H33.917ZM33.6582 21.3486L34.7703 22.3552L34.7705 22.355L33.6582 21.3486ZM32.1162 21.7627L31.9671 20.2701L31.966 20.2702L32.1162 21.7627ZM31.2041 21.8545L31.3532 23.3471L31.3543 23.347L31.2041 21.8545ZM28.5244 22.6514L27.1387 22.077L27.1387 22.0772L28.5244 22.6514ZM29.8545 25.1104L28.6935 26.0601L28.6937 26.0604L29.8545 25.1104ZM30.4355 25.8203L31.5966 24.8706L31.5963 24.8703L30.4355 25.8203ZM31.2324 27.2031L32.7306 27.2779L32.7306 27.2776L31.2324 27.2031ZM30.3018 28.5L31.3624 29.5607L30.3018 28.5ZM27.2031 31.2324L27.2775 32.7306L27.2778 32.7306L27.2031 31.2324ZM25.8203 30.4346L26.7702 29.2737L26.7694 29.273L25.8203 30.4346ZM25.1104 29.8545L24.1605 31.0154L24.1613 31.0161L25.1104 29.8545ZM22.6514 28.5244L22.0773 27.1386L22.0765 27.139L22.6514 28.5244ZM21.8545 31.2041L23.347 31.3543L23.3471 31.3532L21.8545 31.2041ZM21.7627 32.1162L20.2702 31.966L20.2701 31.9671L21.7627 32.1162ZM21.3486 33.6582L22.3551 34.7705L22.3552 34.7703L21.3486 33.6582ZM17.2266 33.917V35.417V33.917ZM15.6504 33.6582L14.6432 34.7697L14.644 34.7705L15.6504 33.6582ZM15.2363 32.1162L13.7437 32.2647L13.7438 32.2658L15.2363 32.1162ZM15.1455 31.2031L16.6381 31.0547L16.638 31.0536L15.1455 31.2031ZM14.3467 28.5244L14.9205 27.1385L14.9202 27.1384L14.3467 28.5244ZM11.8887 29.8555L12.8376 31.0172L12.8386 31.0163L11.8887 29.8555ZM11.1797 30.4346L10.2308 29.2729L10.2297 29.2737L11.1797 30.4346ZM9.79688 31.2324L9.72223 32.7306L9.72263 32.7306L9.79688 31.2324ZM8.49902 30.3008L7.43836 31.3614L8.49902 30.3008ZM6.69824 28.5L5.63758 29.5607L6.69824 28.5ZM5.76758 27.2031L4.26943 27.2776L4.26944 27.2779L5.76758 27.2031ZM6.56445 25.8203L5.40366 24.8703L5.40343 24.8706L6.56445 25.8203ZM7.14551 25.1104L8.3063 26.0604L8.30653 26.0601L7.14551 25.1104ZM8.47559 22.6514L9.86135 22.0772L9.86126 22.077L8.47559 22.6514ZM5.7959 21.8545L5.64569 23.347L5.6468 23.3471L5.7959 21.8545ZM4.88379 21.7627L5.03399 20.2702L5.03289 20.2701L4.88379 21.7627ZM3.3418 21.3486L2.22953 22.355L2.22967 22.3552L3.3418 21.3486ZM3.08301 17.2266H1.58301H3.08301ZM3.3418 15.6514L2.2296 14.6449L2.22942 14.6451L3.3418 15.6514ZM4.88379 15.2373L5.03311 16.7299L5.03383 16.7298L4.88379 15.2373ZM5.79688 15.1455L5.64755 13.653L5.64683 13.653L5.79688 15.1455ZM8.47559 14.3477L9.86137 14.9218L9.86139 14.9217L8.47559 14.3477ZM7.14551 11.8887L8.30653 10.9389L8.3063 10.9386L7.14551 11.8887ZM6.56445 11.1787L5.40343 12.1285L5.40366 12.1287L6.56445 11.1787ZM5.76758 9.7959L4.26944 9.72111L4.26943 9.72144L5.76758 9.7959ZM6.69824 8.49902L5.63758 7.43836L6.69824 8.49902ZM9.79688 5.7666L9.72252 4.26845L9.72215 4.26846L9.79688 5.7666ZM11.1797 6.56445L12.1295 5.40352L11.1797 6.56445ZM14.3477 8.47461L14.9216 9.86048L14.9216 9.86045L14.3477 8.47461ZM15.1455 5.79492L16.6381 5.94427L16.6381 5.9437L15.1455 5.79492ZM15.2363 4.88379L13.7438 4.73444L13.7437 4.73501L15.2363 4.88379ZM15.6514 3.3418L14.6451 2.22941L14.6449 2.22959L15.6514 3.3418ZM17.2266 3.08301V1.58301V3.08301ZM18.5 12.333V10.833V10.833V12.333ZM12.333 18.5H10.833V18.5H12.333ZM18.5 24.667V26.167V26.167V24.667ZM24.667 18.5H26.167V18.5H24.667ZM19.7725 3.08301V4.58301C19.9928 4.58301 20.161 4.58312 20.3047 4.58664C20.4488 4.59018 20.5332 4.59657 20.5839 4.60311C20.6333 4.60948 20.6144 4.61173 20.5612 4.59111C20.4977 4.56652 20.4174 4.52206 20.3422 4.45407L21.3486 3.3418L22.355 2.22953C21.898 1.81596 21.3794 1.68092 20.9681 1.62781C20.5991 1.58016 20.1627 1.58301 19.7725 1.58301V3.08301ZM21.3486 3.3418L20.3421 4.45392C20.267 4.38597 20.2147 4.3105 20.1839 4.24962C20.158 4.19856 20.1583 4.17949 20.1695 4.22785C20.1811 4.27752 20.1958 4.36077 20.2136 4.5038C20.2314 4.64633 20.2482 4.81369 20.2701 5.03289L21.7627 4.88379L23.2553 4.73469C23.2165 4.34656 23.176 3.91219 23.0919 3.54984C22.9982 3.14571 22.8122 2.64328 22.3552 2.22967L21.3486 3.3418ZM21.7627 4.88379L20.2702 5.03399L20.362 5.9461L21.8545 5.7959L23.347 5.64569L23.2552 4.73358L21.7627 4.88379ZM21.8545 5.7959L20.3619 5.945C20.4384 6.71076 20.5088 7.45739 20.652 8.02762C20.7956 8.59977 21.1248 9.46657 22.077 9.86126L22.6514 8.47559L23.2257 7.08991C23.6252 7.2555 23.6375 7.5992 23.5617 7.29714C23.4854 6.99317 23.4337 6.51451 23.3471 5.6468L21.8545 5.7959ZM22.6514 8.47559L22.0772 9.86135C23.029 10.2557 23.8746 9.87657 24.3813 9.5737C24.8862 9.27188 25.4642 8.79401 26.0601 8.30653L25.1104 7.14551L24.1606 5.98448C23.486 6.53636 23.1108 6.83804 22.8421 6.99868C22.5751 7.15826 22.8265 6.9245 23.2255 7.08982L22.6514 8.47559ZM25.1104 7.14551L26.0604 8.3063L26.7703 7.72525L25.8203 6.56445L24.8703 5.40366L24.1603 5.98471L25.1104 7.14551ZM25.8203 6.56445L26.7701 7.72548C26.9404 7.58612 27.0706 7.47977 27.1839 7.39167C27.2976 7.30327 27.3668 7.25489 27.41 7.22797C27.4521 7.20175 27.4389 7.21543 27.3846 7.2332C27.3198 7.25437 27.2296 7.27075 27.1287 7.26573L27.2031 5.76758L27.2776 4.26943C26.6625 4.23886 26.176 4.46222 25.8239 4.68152C25.5082 4.87818 25.1725 5.15644 24.8706 5.40343L25.8203 6.56445ZM27.2031 5.76758L27.1283 7.26571C27.0274 7.26067 26.9393 7.23542 26.8769 7.20791C26.8246 7.18482 26.8128 7.16989 26.8521 7.20016C26.8924 7.23124 26.9565 7.28627 27.0608 7.38555C27.1647 7.48447 27.2837 7.60327 27.4393 7.7589L28.5 6.69824L29.5607 5.63758C29.2847 5.36167 28.9783 5.0513 28.6836 4.82413C28.355 4.57082 27.8931 4.30015 27.2779 4.26944L27.2031 5.76758ZM28.5 6.69824L27.4393 7.7589L29.2401 9.55968L30.3008 8.49902L31.3614 7.43836L29.5607 5.63758L28.5 6.69824ZM30.3008 8.49902L29.2401 9.55968C29.3959 9.71545 29.5148 9.83453 29.6139 9.9386C29.7133 10.043 29.7685 10.1073 29.7997 10.1477C29.8301 10.1872 29.8152 10.1755 29.7922 10.1233C29.7647 10.061 29.7393 9.9728 29.7343 9.87152L31.2324 9.79688L32.7306 9.72223C32.6999 9.10649 32.4286 8.6442 32.1754 8.31574C31.9481 8.02099 31.6375 7.71442 31.3614 7.43836L30.3008 8.49902ZM31.2324 9.79688L29.7343 9.87112C29.7292 9.76982 29.7457 9.6794 29.767 9.61451C29.7848 9.56009 29.7985 9.54685 29.7722 9.58904C29.7452 9.63237 29.6967 9.70169 29.6081 9.81549C29.5198 9.92892 29.4133 10.0592 29.2737 10.2297L30.4346 11.1797L31.5954 12.1297C31.8423 11.828 32.1208 11.4923 32.3175 11.177C32.537 10.8252 32.7611 10.3384 32.7306 9.72263L31.2324 9.79688ZM30.4346 11.1797L29.2729 10.2308L28.6937 10.9398L29.8555 11.8887L31.0172 12.8376L31.5963 12.1286L30.4346 11.1797ZM29.8555 11.8887L28.6946 10.9387C28.2073 11.5342 27.7292 12.1119 27.4273 12.6163C27.1243 13.1225 26.7444 13.968 27.1384 14.9202L28.5244 14.3467L29.9104 13.7732C30.0757 14.1726 29.8416 14.4242 30.0014 14.1571C30.1623 13.8883 30.4642 13.5134 31.0163 12.8386L29.8555 11.8887ZM28.5244 14.3467L27.1385 14.9205C27.5325 15.872 28.3979 16.2022 28.9705 16.3465C29.541 16.4903 30.2874 16.5613 31.0536 16.638L31.2031 15.1455L31.3527 13.653C30.4857 13.5661 30.0072 13.514 29.7039 13.4375C29.4026 13.3616 29.7452 13.3742 29.9103 13.7729L28.5244 14.3467ZM31.2031 15.1455L31.0547 16.6381L31.9677 16.729L32.1162 15.2363L32.2647 13.7437L31.3516 13.6529L31.2031 15.1455ZM32.1162 15.2363L31.9667 16.7289C32.1858 16.7508 32.3531 16.7677 32.4957 16.7855C32.6387 16.8034 32.7221 16.8181 32.772 16.8297C32.8206 16.841 32.8017 16.8414 32.7509 16.8156C32.6903 16.7849 32.6148 16.7328 32.5467 16.6576L33.6582 15.6504L34.7697 14.6432C34.356 14.1866 33.8536 14.001 33.45 13.9073C33.0879 13.8233 32.6538 13.7827 32.2658 13.7438L32.1162 15.2363ZM33.6582 15.6504L32.5459 16.6568C32.4779 16.5816 32.4334 16.5012 32.4088 16.4378C32.3882 16.3846 32.3905 16.3658 32.3969 16.4152C32.4034 16.4659 32.4098 16.5503 32.4134 16.6944C32.4169 16.8381 32.417 17.0063 32.417 17.2266H33.917H35.417C35.417 16.8363 35.4198 16.4 35.3722 16.031C35.3191 15.6198 35.1841 15.1011 34.7705 14.644L33.6582 15.6504ZM33.917 17.2266H32.417V19.7725H33.917H35.417V17.2266H33.917ZM33.917 19.7725H32.417C32.417 19.9928 32.4169 20.161 32.4134 20.3047C32.4098 20.4488 32.4034 20.5332 32.3969 20.5839C32.3905 20.6333 32.3883 20.6144 32.4089 20.5612C32.4335 20.4977 32.4779 20.4174 32.5459 20.3422L33.6582 21.3486L34.7705 22.355C35.184 21.898 35.3191 21.3794 35.3722 20.9681C35.4198 20.5991 35.417 20.1627 35.417 19.7725H33.917ZM33.6582 21.3486L32.5461 20.3421C32.614 20.267 32.6895 20.2147 32.7504 20.1839C32.8014 20.158 32.8205 20.1583 32.7721 20.1695C32.7225 20.1811 32.6392 20.1958 32.4962 20.2136C32.3537 20.2314 32.1863 20.2482 31.9671 20.2701L32.1162 21.7627L32.2653 23.2553C32.6534 23.2165 33.0878 23.176 33.4502 23.0919C33.8543 22.9982 34.3567 22.8122 34.7703 22.3552L33.6582 21.3486ZM32.1162 21.7627L31.966 20.2702L31.0539 20.362L31.2041 21.8545L31.3543 23.347L32.2664 23.2552L32.1162 21.7627ZM31.2041 21.8545L31.055 20.3619C30.2892 20.4384 29.5426 20.5088 28.9724 20.652C28.4002 20.7956 27.5334 21.1248 27.1387 22.077L28.5244 22.6514L29.9101 23.2257C29.7445 23.6252 29.4008 23.6375 29.7029 23.5617C30.0068 23.4854 30.4855 23.4337 31.3532 23.3471L31.2041 21.8545ZM28.5244 22.6514L27.1387 22.0772C26.7443 23.029 27.1234 23.8746 27.4263 24.3813C27.7281 24.8862 28.206 25.4642 28.6935 26.0601L29.8545 25.1104L31.0155 24.1606C30.4636 23.486 30.162 23.1108 30.0013 22.8421C29.8417 22.5751 30.0755 22.8265 29.9102 23.2255L28.5244 22.6514ZM29.8545 25.1104L28.6937 26.0604L29.2748 26.7703L30.4355 25.8203L31.5963 24.8703L31.0153 24.1603L29.8545 25.1104ZM30.4355 25.8203L29.2745 26.7701C29.4139 26.9404 29.5202 27.0706 29.6083 27.1839C29.6967 27.2976 29.7451 27.3668 29.772 27.41C29.7983 27.4521 29.7846 27.4389 29.7668 27.3846C29.7456 27.3198 29.7293 27.2296 29.7343 27.1287L31.2324 27.2031L32.7306 27.2776C32.7611 26.6625 32.5378 26.176 32.3185 25.8239C32.1218 25.5082 31.8436 25.1725 31.5966 24.8706L30.4355 25.8203ZM31.2324 27.2031L29.7343 27.1283C29.7393 27.0274 29.7646 26.9393 29.7921 26.8769C29.8152 26.8246 29.8301 26.8128 29.7998 26.8521C29.7688 26.8924 29.7137 26.9565 29.6145 27.0608C29.5155 27.1647 29.3967 27.2837 29.2411 27.4393L30.3018 28.5L31.3624 29.5607C31.6383 29.2847 31.9487 28.9783 32.1759 28.6836C32.4292 28.355 32.6998 27.8931 32.7306 27.2779L31.2324 27.2031ZM30.3018 28.5L29.2411 27.4393L27.4403 29.2401L28.501 30.3008L29.5616 31.3614L31.3624 29.5607L30.3018 28.5ZM28.501 30.3008L27.4403 29.2401C27.2846 29.3959 27.1655 29.5148 27.0614 29.6138C26.957 29.7133 26.8928 29.7684 26.8523 29.7997C26.8128 29.8301 26.8245 29.8152 26.8767 29.7922C26.9389 29.7647 27.0271 29.7393 27.1284 29.7343L27.2031 31.2324L27.2778 32.7306C27.8936 32.6999 28.3558 32.4286 28.6843 32.1753C28.979 31.948 29.2856 31.6375 29.5616 31.3614L28.501 30.3008ZM27.2031 31.2324L27.1288 29.7343C27.2301 29.7292 27.3206 29.7457 27.3855 29.767C27.44 29.7848 27.4532 29.7986 27.411 29.7723C27.3677 29.7452 27.2984 29.6967 27.1845 29.6081C27.0711 29.5197 26.9408 29.4132 26.7702 29.2737L25.8203 30.4346L24.8704 31.5955C25.172 31.8422 25.5077 32.1208 25.823 32.3175C26.1747 32.5369 26.6615 32.7611 27.2775 32.7306L27.2031 31.2324ZM25.8203 30.4346L26.7694 29.273L26.0594 28.6929L25.1104 29.8545L24.1613 31.0161L24.8712 31.5961L25.8203 30.4346ZM25.1104 29.8545L26.0602 28.6936C25.4642 28.2059 24.8862 27.728 24.3812 27.4261C23.8743 27.1232 23.0288 26.7444 22.0773 27.1386L22.6514 28.5244L23.2255 29.9102C22.8267 30.0754 22.5755 29.8419 22.8421 30.0013C23.1107 30.1618 23.4859 30.4634 24.1605 31.0154L25.1104 29.8545ZM22.6514 28.5244L22.0765 27.139C21.1249 27.5338 20.7958 28.4002 20.6521 28.9724C20.5089 29.5426 20.4384 30.2892 20.3619 31.055L21.8545 31.2041L23.3471 31.3532C23.4337 30.4856 23.4854 30.007 23.5618 29.703C23.6376 29.401 23.6254 29.7443 23.2263 29.9099L22.6514 28.5244ZM21.8545 31.2041L20.362 31.0539L20.2702 31.966L21.7627 32.1162L23.2552 32.2664L23.347 31.3543L21.8545 31.2041ZM21.7627 32.1162L20.2701 31.9671C20.2482 32.1863 20.2314 32.3537 20.2136 32.4962C20.1958 32.6392 20.1811 32.7225 20.1695 32.7721C20.1583 32.8205 20.158 32.8014 20.1839 32.7504C20.2147 32.6895 20.267 32.614 20.3421 32.5461L21.3486 33.6582L22.3552 34.7703C22.8122 34.3567 22.9982 33.8543 23.0919 33.4502C23.176 33.0878 23.2165 32.6534 23.2553 32.2653L21.7627 32.1162ZM21.3486 33.6582L20.3422 32.5459C20.4174 32.4779 20.4977 32.4335 20.5612 32.4089C20.6144 32.3883 20.6333 32.3905 20.5839 32.3969C20.5332 32.4034 20.4488 32.4098 20.3047 32.4134C20.161 32.4169 19.9928 32.417 19.7725 32.417V33.917V35.417C20.1627 35.417 20.5991 35.4198 20.9681 35.3722C21.3794 35.3191 21.898 35.184 22.3551 34.7705L21.3486 33.6582ZM19.7725 33.917V32.417H17.2266V33.917V35.417H19.7725V33.917ZM17.2266 33.917V32.417C17.0063 32.417 16.8381 32.4169 16.6944 32.4134C16.5503 32.4098 16.4659 32.4034 16.4152 32.3969C16.3658 32.3905 16.3846 32.3882 16.4378 32.4088C16.5012 32.4334 16.5816 32.4779 16.6568 32.5459L15.6504 33.6582L14.644 34.7705C15.1011 35.1841 15.6198 35.3191 16.031 35.3722C16.4 35.4198 16.8363 35.417 17.2266 35.417V33.917ZM15.6504 33.6582L16.6576 32.5467C16.7328 32.6148 16.7849 32.6903 16.8156 32.7509C16.8414 32.8017 16.841 32.8206 16.8297 32.772C16.8181 32.7221 16.8034 32.6387 16.7855 32.4957C16.7677 32.3531 16.7508 32.1858 16.7289 31.9667L15.2363 32.1162L13.7438 32.2658C13.7827 32.6538 13.8233 33.0879 13.9073 33.45C14.001 33.8536 14.1866 34.356 14.6432 34.7697L15.6504 33.6582ZM15.2363 32.1162L16.729 31.9677L16.6381 31.0547L15.1455 31.2031L13.6529 31.3516L13.7437 32.2647L15.2363 32.1162ZM15.1455 31.2031L16.638 31.0536C16.5613 30.2874 16.4903 29.541 16.3465 28.9705C16.2022 28.3979 15.872 27.5325 14.9205 27.1385L14.3467 28.5244L13.7729 29.9103C13.3742 29.7452 13.3616 29.4026 13.4375 29.7039C13.514 30.0072 13.5661 30.4857 13.653 31.3527L15.1455 31.2031ZM14.3467 28.5244L14.9202 27.1384C13.968 26.7444 13.1225 27.1243 12.6163 27.4273C12.1119 27.7292 11.5342 28.2073 10.9387 28.6946L11.8887 29.8555L12.8386 31.0163C13.5134 30.4642 13.8883 30.1623 14.1571 30.0014C14.4242 29.8416 14.1726 30.0757 13.7732 29.9104L14.3467 28.5244ZM11.8887 29.8555L10.9398 28.6937L10.2308 29.2729L11.1797 30.4346L12.1286 31.5963L12.8376 31.0172L11.8887 29.8555ZM11.1797 30.4346L10.2297 29.2737C10.0592 29.4133 9.92892 29.5198 9.81549 29.6081C9.70169 29.6967 9.63237 29.7452 9.58904 29.7722C9.54685 29.7985 9.56009 29.7848 9.61451 29.767C9.6794 29.7457 9.76982 29.7292 9.87112 29.7343L9.79688 31.2324L9.72263 32.7306C10.3384 32.7611 10.8252 32.537 11.177 32.3175C11.4923 32.1208 11.828 31.8423 12.1297 31.5954L11.1797 30.4346ZM9.79688 31.2324L9.87152 29.7343C9.9728 29.7393 10.061 29.7647 10.1233 29.7922C10.1755 29.8152 10.1872 29.8301 10.1477 29.7997C10.1073 29.7685 10.043 29.7133 9.9386 29.6139C9.83453 29.5148 9.71545 29.3959 9.55968 29.2401L8.49902 30.3008L7.43836 31.3614C7.71442 31.6375 8.02099 31.9481 8.31574 32.1754C8.6442 32.4287 9.10649 32.6999 9.72223 32.7306L9.79688 31.2324ZM8.49902 30.3008L9.55968 29.2401L7.7589 27.4393L6.69824 28.5L5.63758 29.5607L7.43836 31.3614L8.49902 30.3008ZM6.69824 28.5L7.7589 27.4393C7.60327 27.2837 7.48447 27.1647 7.38555 27.0608C7.28627 26.9565 7.23124 26.8924 7.20016 26.8521C7.16989 26.8128 7.18482 26.8246 7.20791 26.8769C7.23542 26.9393 7.26067 27.0274 7.26571 27.1283L5.76758 27.2031L4.26944 27.2779C4.30015 27.8931 4.57082 28.355 4.82413 28.6836C5.0513 28.9783 5.36167 29.2847 5.63758 29.5607L6.69824 28.5ZM5.76758 27.2031L7.26573 27.1287C7.27075 27.2296 7.25437 27.3198 7.2332 27.3846C7.21543 27.4389 7.20175 27.4521 7.22797 27.41C7.25489 27.3668 7.30327 27.2976 7.39167 27.1839C7.47977 27.0706 7.58612 26.9404 7.72548 26.7701L6.56445 25.8203L5.40343 24.8706C5.15644 25.1725 4.87818 25.5082 4.68152 25.8239C4.46222 26.176 4.23886 26.6625 4.26943 27.2776L5.76758 27.2031ZM6.56445 25.8203L7.72525 26.7703L8.3063 26.0604L7.14551 25.1104L5.98471 24.1603L5.40366 24.8703L6.56445 25.8203ZM7.14551 25.1104L8.30653 26.0601C8.79401 25.4642 9.27188 24.8862 9.5737 24.3813C9.87657 23.8746 10.2557 23.029 9.86135 22.0772L8.47559 22.6514L7.08982 23.2255C6.9245 22.8265 7.15826 22.5751 6.99868 22.8421C6.83804 23.1108 6.53636 23.486 5.98448 24.1606L7.14551 25.1104ZM8.47559 22.6514L9.86126 22.077C9.46657 21.1248 8.59977 20.7956 8.02762 20.652C7.45739 20.5088 6.71076 20.4384 5.945 20.3619L5.7959 21.8545L5.6468 23.3471C6.51451 23.4337 6.99317 23.4854 7.29714 23.5617C7.5992 23.6375 7.2555 23.6252 7.08991 23.2257L8.47559 22.6514ZM5.7959 21.8545L5.9461 20.362L5.03399 20.2702L4.88379 21.7627L4.73358 23.2552L5.64569 23.347L5.7959 21.8545ZM4.88379 21.7627L5.03289 20.2701C4.81369 20.2482 4.64633 20.2314 4.5038 20.2136C4.36077 20.1958 4.27752 20.1811 4.22785 20.1695C4.17949 20.1583 4.19856 20.158 4.24962 20.1839C4.3105 20.2147 4.38597 20.267 4.45392 20.3421L3.3418 21.3486L2.22967 22.3552C2.64328 22.8122 3.14571 22.9982 3.54984 23.0919C3.91219 23.176 4.34656 23.2165 4.73469 23.2553L4.88379 21.7627ZM3.3418 21.3486L4.45407 20.3422C4.52206 20.4174 4.56652 20.4977 4.59111 20.5612C4.61173 20.6144 4.60948 20.6333 4.60311 20.5839C4.59657 20.5332 4.59018 20.4488 4.58664 20.3047C4.58312 20.161 4.58301 19.9928 4.58301 19.7725H3.08301H1.58301C1.58301 20.1627 1.58016 20.5991 1.62781 20.9681C1.68092 21.3794 1.81596 21.898 2.22953 22.355L3.3418 21.3486ZM3.08301 19.7725H4.58301V17.2266H3.08301H1.58301V19.7725H3.08301ZM3.08301 17.2266H4.58301C4.58301 17.0064 4.58312 16.8382 4.58665 16.6947C4.59019 16.5507 4.59659 16.4665 4.60312 16.4159C4.60948 16.3668 4.6117 16.3857 4.59105 16.439C4.56643 16.5025 4.522 16.5827 4.45418 16.6577L3.3418 15.6514L2.22942 14.6451C1.81622 15.1018 1.68106 15.6199 1.62788 16.0313C1.58019 16.4003 1.58301 16.8364 1.58301 17.2266H3.08301ZM3.3418 15.6514L4.454 16.6579C4.38599 16.733 4.31046 16.7853 4.24952 16.8162C4.19842 16.8421 4.17932 16.8418 4.22772 16.8305C4.27743 16.819 4.36071 16.8043 4.50381 16.7864C4.64643 16.7686 4.81382 16.7518 5.03311 16.7299L4.88379 15.2373L4.73447 13.7448C4.34651 13.7836 3.91213 13.8241 3.54991 13.9081C3.14588 14.0018 2.64329 14.1877 2.2296 14.6449L3.3418 15.6514ZM4.88379 15.2373L5.03383 16.7298L5.94692 16.638L5.79688 15.1455L5.64683 13.653L4.73374 13.7448L4.88379 15.2373ZM5.79688 15.1455L5.9462 16.6381C6.71208 16.5614 7.45854 16.4907 8.02885 16.3472C8.60131 16.2032 9.46712 15.8734 9.86137 14.9218L8.47559 14.3477L7.0898 13.7736C7.25507 13.3746 7.59809 13.3621 7.29673 13.4379C6.99321 13.5143 6.5148 13.5662 5.64755 13.653L5.79688 15.1455ZM8.47559 14.3477L9.86139 14.9217C10.2557 13.97 9.87652 13.1244 9.57367 12.6177C9.27185 12.1128 8.794 11.5348 8.30653 10.9389L7.14551 11.8887L5.98448 12.8384C6.53632 13.513 6.83799 13.8882 6.99863 14.1569C7.15824 14.4239 6.9245 14.1726 7.08978 13.7736L8.47559 14.3477ZM7.14551 11.8887L8.3063 10.9386L7.72525 10.2287L6.56445 11.1787L5.40366 12.1287L5.98471 12.8387L7.14551 11.8887ZM6.56445 11.1787L7.72548 10.229C7.58612 10.0586 7.47977 9.92841 7.39167 9.81514C7.30327 9.70147 7.25489 9.63223 7.22797 9.589C7.20175 9.54692 7.21543 9.56014 7.2332 9.61447C7.25437 9.67923 7.27075 9.76939 7.26573 9.87035L5.76758 9.7959L4.26943 9.72144C4.23886 10.3365 4.46222 10.823 4.68152 11.1751C4.87818 11.4908 5.15644 11.8265 5.40343 12.1285L6.56445 11.1787ZM5.76758 9.7959L7.26571 9.87069C7.26067 9.97166 7.23542 10.0598 7.20791 10.1221C7.18482 10.1744 7.16989 10.1862 7.20016 10.1469C7.23124 10.1066 7.28627 10.0425 7.38555 9.93822C7.48447 9.83429 7.60327 9.71532 7.7589 9.55968L6.69824 8.49902L5.63758 7.43836C5.36167 7.71428 5.0513 8.02069 4.82413 8.31539C4.57082 8.64401 4.30015 9.10597 4.26944 9.72111L5.76758 9.7959ZM6.69824 8.49902L7.7589 9.55968L9.55968 7.7589L8.49902 6.69824L7.43836 5.63758L5.63758 7.43836L6.69824 8.49902ZM8.49902 6.69824L9.55968 7.7589C9.71543 7.60316 9.8345 7.48425 9.93856 7.38518C10.043 7.28577 10.1072 7.23059 10.1477 7.19937C10.1872 7.16895 10.1755 7.1838 10.1233 7.20685C10.0611 7.23433 9.97289 7.25969 9.8716 7.26474L9.79688 5.7666L9.72215 4.26846C9.10644 4.29917 8.64416 4.57043 8.31574 4.82368C8.02098 5.05098 7.71442 5.36153 7.43836 5.63758L8.49902 6.69824ZM9.79688 5.7666L9.87123 7.26476C9.76987 7.26979 9.67939 7.2533 9.61445 7.23202C9.56 7.21417 9.54674 7.20043 9.58895 7.22676C9.63229 7.25381 9.70162 7.30233 9.81547 7.39096C9.92894 7.4793 10.0592 7.58579 10.2298 7.72539L11.1797 6.56445L12.1295 5.40352C11.828 5.15678 11.4923 4.87825 11.177 4.68155C10.8253 4.46212 10.3385 4.23788 9.72252 4.26845L9.79688 5.7666ZM11.1797 6.56445L10.2298 7.72539L10.9388 8.30547L11.8887 7.14453L12.8385 5.9836L12.1295 5.40352L11.1797 6.56445ZM11.8887 7.14453L10.9388 8.30547C11.5348 8.79309 12.1127 9.27095 12.6178 9.57279C13.1246 9.87571 13.97 10.2545 14.9216 9.86048L14.3477 8.47461L13.7737 7.08874C14.1725 6.92361 14.4237 7.15714 14.1568 6.99766C13.8882 6.8371 13.513 6.53546 12.8385 5.9836L11.8887 7.14453ZM14.3477 8.47461L14.9216 9.86045C15.8738 9.46608 16.2034 8.59952 16.3473 8.02728C16.4907 7.45688 16.5614 6.71022 16.6381 5.94427L15.1455 5.79492L13.653 5.64558C13.5662 6.51305 13.5143 6.99175 13.4379 7.2956C13.3619 7.59761 13.3743 7.25418 13.7737 7.08877L14.3477 8.47461ZM15.1455 5.79492L16.6381 5.9437L16.7289 5.03257L15.2363 4.88379L13.7437 4.73501L13.6529 5.64614L15.1455 5.79492ZM15.2363 4.88379L16.7289 5.03313C16.7508 4.81419 16.7677 4.64688 16.7855 4.5046C16.8034 4.36178 16.8182 4.27863 16.8297 4.22907C16.841 4.18081 16.8413 4.19976 16.8155 4.25062C16.7847 4.31123 16.7326 4.38635 16.6578 4.45401L15.6514 3.3418L14.6449 2.22959C14.1886 2.64255 14.0021 3.14413 13.9079 3.54853C13.8234 3.91127 13.7827 4.34559 13.7438 4.73444L15.2363 4.88379ZM15.6514 3.3418L16.6576 4.45419C16.5827 4.522 16.5025 4.56643 16.439 4.59105C16.3857 4.6117 16.3668 4.60948 16.4159 4.60312C16.4665 4.59659 16.5507 4.59019 16.6947 4.58665C16.8382 4.58312 17.0064 4.58301 17.2266 4.58301V3.08301V1.58301C16.8364 1.58301 16.4003 1.58019 16.0313 1.62788C15.6199 1.68107 15.1018 1.81623 14.6451 2.22941L15.6514 3.3418ZM17.2266 3.08301V4.58301H19.7725V3.08301V1.58301H17.2266V3.08301ZM18.5 12.333V10.833C14.2658 10.833 10.833 14.2658 10.833 18.5H12.333H13.833C13.833 15.9227 15.9227 13.833 18.5 13.833V12.333ZM12.333 18.5H10.833C10.833 22.7342 14.2658 26.167 18.5 26.167V24.667V23.167C15.9227 23.167 13.833 21.0773 13.833 18.5H12.333ZM18.5 24.667V26.167C22.7342 26.167 26.167 22.7342 26.167 18.5H24.667H23.167C23.167 21.0773 21.0773 23.167 18.5 23.167V24.667ZM24.667 18.5H26.167C26.167 14.2658 22.7342 10.833 18.5 10.833V12.333V13.833C21.0773 13.833 23.167 15.9227 23.167 18.5H24.667Z" fill="white"/>
</svg>
